<svg width="32" height="32" viewBox="0 0 32 32" xmlns="http://www.w3.org/2000/svg" xmlns:xlink="http://www.w3.org/1999/xlink"><defs><path d="M6.297 6.2h-.624a.273.273 0 0 1-.27-.183l-.324-.885H3.282l-.324.885a.284.284 0 0 1-.267.183h-.627l1.704-4.338h.825L6.297 6.2zM3.489 4.562h1.383l-.528-1.443a6.59 6.59 0 0 1-.165-.51 9.996 9.996 0 0 1-.083.285 3.19 3.19 0 0 1-.079.231l-.528 1.437zm5.062.972h1.737V6.2H7.744V1.862h.807v3.672zm4.129-.861V6.2h-.807V1.862h1.413c.29 0 .541.034.753.102.212.068.387.163.525.285.138.122.24.268.306.438.066.17.099.356.099.558 0 .21-.035.402-.105.578-.07.175-.175.325-.315.451s-.315.224-.525.294c-.21.07-.456.105-.738.105h-.606zm0-.63h.606c.148 0 .277-.018.387-.055a.652.652 0 0 0 .435-.411.965.965 0 0 0 .054-.332.875.875 0 0 0-.054-.315.623.623 0 0 0-.162-.24.72.72 0 0 0-.273-.151 1.28 1.28 0 0 0-.387-.053h-.606v1.557zM20.256 6.2h-.813V4.304h-2.034V6.2h-.813V1.862h.813v1.866h2.034V1.862h.813V6.2zm5.689 0h-.624a.273.273 0 0 1-.27-.183l-.324-.885H22.93l-.324.885a.284.284 0 0 1-.267.183h-.627l1.704-4.338h.825L25.945 6.2zm-2.808-1.638h1.383l-.528-1.443a6.59 6.59 0 0 1-.165-.51 9.996 9.996 0 0 1-.083.285 3.19 3.19 0 0 1-.079.231l-.528 1.437z" id="a"/></defs><g fill="none" fill-rule="evenodd"><path d="M31 25.503c0 1.103-.89 1.997-2.01 1.997H23.5v-2.246c0-.83-.68-1.504-1.505-1.504h.198c-.832 0-1.506.67-1.506 1.504V27.5h-9.375v-2.246c0-.83-.68-1.504-1.505-1.504h.198c-.831 0-1.505.67-1.505 1.504V27.5H3.01C1.9 27.5 1 26.604 1 25.503V6.997C1 5.894 1.898 5 2.992 5h26.016C30.108 5 31 5.896 31 6.997v18.506z" fill="#FFD799"/><path d="M16.938 9.688h5.625v.937h-5.625v-.938zm0 2.812H27.25v.938H16.937V12.5zm0 2.813H27.25v.937H16.937v-.938zm0 2.812H27.25v.938H16.937v-.938zm-7.5-3.047c-1.554 0-2.813-1.416-2.813-3.164 0-1.747 1.26-3.164 2.813-3.164 1.553 0 2.812 1.417 2.812 3.164 0 1.748-1.26 3.164-2.813 3.164zm-5.626 3.516c0-.703 1.407-2.813 2.813-2.813 1.406 0 .703.703 2.813.703 2.109 0 1.406-.703 2.812-.703s2.813 2.11 2.813 2.813c0 .703 0 1.406-.704 1.406H4.516c-.704 0-.703-.703-.704-1.406z" fill="#FF9300"/><g transform="translate(4 23)"><rect fill="#297EF1" fill-rule="nonzero" width="28" height="8" rx="1"/><use fill="#000" xlink:href="#a"/><use fill="#FFF" xlink:href="#a"/></g></g></svg>